Coordinates
version=1
nRows=14
nColumns=40
inDegrees=yes

Units are S.I. units (second, meters, Newtons, ...)
If the header above contains a line with 'inDegrees', this indicates whether rotational values are in degrees (yes) or radians (no).

endheader
time	pelvis_tilt	pelvis_list	pelvis_rotation	pelvis_tx	pelvis_ty	pelvis_tz	hip_flexion_r	hip_adduction_r	hip_rotation_r	knee_angle_r	knee_angle_r_beta	ankle_angle_r	subtalar_angle_r	mtp_angle_r	hip_flexion_l	hip_adduction_l	hip_rotation_l	knee_angle_l	knee_angle_l_beta	ankle_angle_l	subtalar_angle_l	mtp_angle_l	lumbar_extension	lumbar_bending	lumbar_rotation	arm_flex_r	arm_add_r	arm_rot_r	elbow_flex_r	pro_sup_r	wrist_flex_r	wrist_dev_r	arm_flex_l	arm_add_l	arm_rot_l	elbow_flex_l	pro_sup_l	wrist_flex_l	wrist_dev_l
      4.37500000	    -34.77234739	      0.05044599	      4.88593491	     -0.38320762	      0.65835498	     -0.90196642	     92.41593559	    -11.91003686	      3.73490435	     99.54558422	      1.73739820	     41.48881090	      0.00000000	      0.00000000	     93.43659664	    -10.77579997	      0.74413656	     98.34715759	      1.71648171	     39.65092668	      0.00000000	      0.00000000	    -15.48574489	     -3.53670188	     -3.70209191	     -0.42337155	    -43.23979345	     63.44832634	     78.57299333	     87.83864886	      0.00000000	      0.00000000	    -14.00013918	    -46.34397793	     48.89420924	     87.82309380	     87.86650689	      0.00000000	      0.00000000
      4.38000000	    -34.63667936	      0.10984851	      4.62163543	     -0.38149040	      0.66330370	     -0.90169897	     91.70994472	    -11.58107986	      3.69478774	     98.75596572	      1.72361676	     41.25070921	      0.00000000	      0.00000000	     92.67736176	    -10.92031273	      0.69021848	     97.66335716	      1.70454714	     39.57877188	      0.00000000	      0.00000000	    -14.91062315	     -3.67144080	     -3.46273912	     -0.15245813	    -43.10037484	     63.76743315	     78.17973438	     87.84501636	      0.00000000	      0.00000000	    -13.74803608	    -46.35884898	     49.12232529	     87.63321697	     87.86076986	      0.00000000	      0.00000000
      4.38500000	    -33.68399762	      0.14916305	      4.63425454	     -0.37821871	      0.67011075	     -0.90196497	     89.93143087	    -11.64858620	      3.45448549	     97.97957960	      1.71006626	     41.04205613	      0.00000000	      0.00000000	     90.91698185	    -10.80063966	      0.62292883	     96.89700389	      1.69117175	     39.51519946	      0.00000000	      0.00000000	    -15.26121914	     -3.62854383	     -3.48250333	      0.20619659	    -42.83885251	     64.04851104	     77.53272956	     87.84071394	      0.00000000	      0.00000000	    -13.34388890	    -46.30003631	     49.40798044	     87.27562860	     87.86818046	      0.00000000	      0.00000000
      4.39000000	    -33.66383071	      0.27374918	      4.58393951	     -0.37666232	      0.67517327	     -0.90218516	     89.36417791	    -11.59153536	      3.48409100	     97.19200134	      1.69632043	     40.82197148	      0.00000000	      0.00000000	     90.22545207	    -10.64003045	      0.50756226	     96.11255757	      1.67748058	     39.39398140	      0.00000000	      0.00000000	    -14.56076526	     -3.76110172	     -3.46874624	      0.47472557	    -42.72246736	     64.42949230	     77.15122074	     87.84160605	      0.00000000	      0.00000000	    -13.01947179	    -46.33117359	     49.74021743	     87.12684583	     87.85857802	      0.00000000	      0.00000000
      4.39500000	    -33.21757962	      0.37558006	      4.57026988	     -0.37429635	      0.68110793	     -0.90252398	     88.26072126	    -11.61228821	      3.44687264	     96.41374421	      1.68273728	     40.45630470	      0.00000000	      0.00000000	     89.00639325	    -10.47706255	      0.40376928	     95.23689377	      1.66219737	     39.39053754	      0.00000000	      0.00000000	    -14.30259372	     -3.81970830	     -3.52920986	      0.68823012	    -42.58467248	     64.61541535	     76.75709347	     87.83477381	      0.00000000	      0.00000000	    -12.77390369	    -46.31925755	     49.96156724	     86.91225221	     87.86418226	      0.00000000	      0.00000000
      4.40000000	    -32.90307111	      0.37077643	      4.36673417	     -0.37217991	      0.68701656	     -0.90228753	     87.27012140	    -11.33003475	      3.31653266	     95.54076235	      1.66750087	     40.12120237	      0.00000000	      0.00000000	     87.99569246	    -10.54883391	      0.39791731	     94.43574490	      1.64821468	     39.25368222	      0.00000000	      0.00000000	    -13.87351691	     -3.84156109	     -3.36347555	      0.94784358	    -42.38229041	     64.99396283	     76.33744668	     87.83768796	      0.00000000	      0.00000000	    -12.45944032	    -46.32210378	     50.25943511	     86.71034422	     87.86636602	      0.00000000	      0.00000000
      4.40500000	    -31.97636303	      0.46486040	      4.42240372	     -0.36889171	      0.69435769	     -0.90281342	     85.49893138	    -11.49055349	      3.13041937	     94.64814332	      1.65192173	     39.89324375	      0.00000000	      0.00000000	     86.15403804	    -10.34166714	      0.25874042	     93.45229886	      1.63105031	     39.28748724	      0.00000000	      0.00000000	    -14.10206627	     -3.83128976	     -3.47260555	      1.33806078	    -42.13805758	     65.33210574	     75.62236914	     87.82947937	      0.00000000	      0.00000000	    -11.95885217	    -46.20462307	     50.71915197	     86.24452256	     87.87383841	      0.00000000	      0.00000000
      4.41000000	    -31.66382938	      0.42431060	      4.16890052	     -0.36667374	      0.70036869	     -0.90247613	     84.48411650	    -11.14541811	      3.00659496	     93.70287582	      1.63542370	     39.66765987	      0.00000000	      0.00000000	     85.13599852	    -10.49873816	      0.26560360	     92.59913009	      1.61615970	     39.20528461	      0.00000000	      0.00000000	    -13.54924891	     -3.83599748	     -3.24103864	      1.78134657	    -42.02878190	     66.13973535	     75.26957531	     87.82388595	      0.00000000	      0.00000000	    -11.27542322	    -46.30788453	     51.60144841	     86.02429857	     87.87656738	      0.00000000	      0.00000000
      4.41500000	    -31.35800520	      0.44587295	      4.24244064	     -0.36444464	      0.70671682	     -0.90297174	     83.46846584	    -11.22832803	      2.88657156	     92.78835867	      1.61946237	     39.21824770	      0.00000000	      0.00000000	     84.07755243	    -10.22138844	      0.26214777	     91.62273403	      1.59911838	     38.96721618	      0.00000000	      0.00000000	    -13.06958994	     -3.78400591	     -3.36203327	      2.00833233	    -41.87054330	     66.41923195	     74.81409820	     87.82420832	      0.00000000	      0.00000000	    -10.89685336	    -46.15759385	     52.07725307	     85.58860896	     87.86621449	      0.00000000	      0.00000000
      4.42000000	    -30.35344659	      0.48721475	      3.98793186	     -0.36094328	      0.71451295	     -0.90273058	     81.57625244	    -10.97041768	      2.70998848	     91.78693343	      1.60198420	     38.83389364	      0.00000000	      0.00000000	     82.12063726	    -10.43042658	      0.08689476	     90.61639436	      1.58155444	     38.94509135	      0.00000000	      0.00000000	    -13.30359190	     -3.81932321	     -3.19438410	      2.39602114	    -41.56344292	     66.87112634	     74.14657158	     87.81218926	      0.00000000	      0.00000000	    -10.32334060	    -46.11980511	     52.64284928	     85.19393460	     87.87697071	      0.00000000	      0.00000000
      4.42500000	    -29.84311340	      0.35734436	      4.07984729	     -0.35835150	      0.72152673	     -0.90317895	     80.23272436	    -11.02088517	      2.39153078	     90.76879474	      1.58421433	     38.45502385	      0.00000000	      0.00000000	     80.85011735	    -10.21884405	      0.20637466	     89.58048293	      1.56347437	     38.72118818	      0.00000000	      0.00000000	    -12.97872004	     -3.59660015	     -3.34007254	      2.76953952	    -41.38681921	     67.45636394	     73.59173471	     87.83941002	      0.00000000	      0.00000000	     -9.67631131	    -45.99468040	     53.47169988	     84.68993989	     87.87673675	      0.00000000	      0.00000000
      4.43000000	    -28.96098849	      0.45085185	      3.97272916	     -0.35513829	      0.72942924	     -0.90336425	     78.46665428	    -10.94046951	      2.27802863	     89.66596176	      1.56496626	     38.05945163	      0.00000000	      0.00000000	     79.02121376	    -10.20073363	      0.02608701	     88.49792964	      1.54458025	     38.54513967	      0.00000000	      0.00000000	    -13.03614902	     -3.62108425	     -3.34187857	      3.30060258	    -41.14459572	     68.10564655	     72.96782612	     87.82938686	      0.00000000	      0.00000000	     -8.94324772	    -45.92399711	     54.41229528	     84.15551104	     87.87530353	      0.00000000	      0.00000000
      4.43500000	    -28.68896335	      0.58036881	      3.93899815	     -0.35268619	      0.73627459	     -0.90365986	     77.46977364	    -10.93272911	      2.29455429	     88.62525351	      1.54680247	     37.53031905	      0.00000000	      0.00000000	     77.87814531	    -10.01611942	     -0.12284537	     87.36922077	      1.52488057	     38.27936276	      0.00000000	      0.00000000	    -12.41902816	     -3.71167671	     -3.40891390	      3.60109679	    -40.92064645	     68.66858571	     72.43926700	     87.82275344	      0.00000000	      0.00000000	     -8.39770457	    -45.78808712	     55.19841157	     83.54181615	     87.87378372	      0.00000000	      0.00000000
      4.44000000	    -28.01334243	      0.85778059	      4.04944797	     -0.34985239	      0.74413161	     -0.90450431	     75.99965941	    -11.22058604	      2.29624797	     87.49974377	      1.52715862	     37.03002564	      0.00000000	      0.00000000	     76.19579662	     -9.62328630	     -0.41998552	     86.13123770	      1.50327369	     38.07370266	      0.00000000	      0.00000000	    -12.25022647	     -3.90834695	     -3.67161444	      4.14917019	    -40.71044161	     69.54455840	     71.89252056	     87.83525936	      0.00000000	      0.00000000	     -7.57712266	    -45.72619829	     56.39023614	     83.04928101	     87.86269316	      0.00000000	      0.00000000
